PathFileType	4	(X/Y/Z)	Kaydara	
DataRate	CameraRate	NumFrames	NumMarkers	Units	OrigDataRate	OrigDataStartFrame	OrigNumFrames	
60.00	60.00	4	74	mm	60.00	2691	161	
Frame#	Time	Z_lasi			Z_rasi			Z_rpsi			Z_lpsi			Z_fneck			Z_bneck			Z_fhead			Z_rhead			Z_lhead			Z_rshld			Z_relbtop			Z_relbext			Z_relblow			Z_rwrext			Z_rwrtop			Z_rwrlow			Z_lshld			Z_lelbext			Z_lelblow			Z_lelbtop			Z_lwrext			Z_lwrtop			Z_rtopleg			Z_ltopleg			Z_rkneefr			Z_rkneebk			Z_rkneeis			Z_lkneefr			Z_lknssbk			Z_lkneeis			Z_rankfr			Z_rankis			Z_rankbk			Z_lankfr			Z_lankbk			Z_lankis			A_lasi			A_rasi			A_rpsi			A_lpsi			A_fneck			A_bneck			A_fhead			A_rhead			A_lhead			A_rshld			A_relbtop			A_relbext			A_relblow			A_rwrext			A_rwrtop			A_rwrlow			A_lshld			A_lelbext			A_lelblow			A_lelbtop			A_lwrext			A_lwrtop			A_lwrlow			A_rtopleg			A_ltopleg			A_rkneefr			A_rkneebk			A_rkneeis			A_lkneefr			A_lknssbk			A_lkneeis			A_rankfr			A_rankis			A_rankbk			A_lankfr			A_lankbk			A_lankis			Z_lwrlow			
		X1	Y1	Z1	X2	Y2	Z2	X3	Y3	Z3	X4	Y4	Z4	X5	Y5	Z5	X6	Y6	Z6	X7	Y7	Z7	X8	Y8	Z8	X9	Y9	Z9	X10	Y10	Z10	X11	Y11	Z11	X12	Y12	Z12	X13	Y13	Z13	X14	Y14	Z14	X15	Y15	Z15	X16	Y16	Z16	X17	Y17	Z17	X18	Y18	Z18	X19	Y19	Z19	X20	Y20	Z20	X21	Y21	Z21	X22	Y22	Z22	X23	Y23	Z23	X24	Y24	Z24	X25	Y25	Z25	X26	Y26	Z26	X27	Y27	Z27	X28	Y28	Z28	X29	Y29	Z29	X30	Y30	Z30	X31	Y31	Z31	X32	Y32	Z32	X33	Y33	Z33	X34	Y34	Z34	X35	Y35	Z35	X36	Y36	Z36	X37	Y37	Z37	X38	Y38	Z38	X39	Y39	Z39	X40	Y40	Z40	X41	Y41	Z41	X42	Y42	Z42	X43	Y43	Z43	X44	Y44	Z44	X45	Y45	Z45	X46	Y46	Z46	X47	Y47	Z47	X48	Y48	Z48	X49	Y49	Z49	X50	Y50	Z50	X51	Y51	Z51	X52	Y52	Z52	X53	Y53	Z53	X54	Y54	Z54	X55	Y55	Z55	X56	Y56	Z56	X57	Y57	Z57	X58	Y58	Z58	X59	Y59	Z59	X60	Y60	Z60	X61	Y61	Z61	X62	Y62	Z62	X63	Y63	Z63	X64	Y64	Z64	X65	Y65	Z65	X66	Y66	Z66	X67	Y67	Z67	X68	Y68	Z68	X69	Y69	Z69	X70	Y70	Z70	X71	Y71	Z71	X72	Y72	Z72	X73	Y73	Z73	X74	Y74	Z74	

81	44.833	-711.13754	1084.84955	-443.11756	-819.58229	1106.01318	-263.60897	-1003.21930	1129.83337	-331.83765	-879.47655	1106.82625	-547.29626	-789.07875	1446.42441	-386.09489	-864.95529	1514.93317	-458.70888	-732.83577	1638.73810	-293.25516	-887.18758	1649.93378	-357.81929	-777.29591	1651.09299	-457.34001	-970.78522	1477.42859	-292.21174	-973.13454	1341.76437	-87.09632	-983.63052	1290.15518	-18.34904	-949.59869	1248.97049	-57.64162	-806.13815	1417.06985	-39.12951	-820.02151	1430.86487	-80.81182	-799.57108	1398.22266	-102.63675	-733.70522	1434.51447	-580.94055	-718.69301	1112.50664	-672.03453	-742.75818	1095.56618	-604.06540	-657.07123	1119.39957	-627.78572	-619.55757	879.20448	-558.15552	-599.62067	872.67532	-601.34388	-1007.22015	930.25848	-256.09018	-752.43118	893.46832	-529.74079	-900.87898	427.03434	-189.59465	-978.37143	469.51191	-213.25460	-877.65747	446.59580	-281.70519	-768.83774	425.65937	-471.08147	-850.80627	457.83287	-534.67819	-835.82054	418.37265	-397.83577	-969.63890	203.13793	-257.17789	-933.93684	205.82901	-314.12775	-1018.28300	216.45943	-313.94796	-832.20459	163.59184	-504.16203	-911.75652	174.01031	-508.63373	-869.04007	175.63507	-446.12770	202.96053	1040.36224	293.00833	225.65664	1054.67300	138.91804	386.00132	1045.41145	147.35945	325.89996	1044.75792	322.13131	290.69187	1379.79584	241.81105	431.03607	1421.41083	253.91737	247.76659	1590.78918	207.18493	411.73176	1562.88269	163.12105	371.10435	1568.66684	321.28635	362.34814	1380.14847	89.55471	124.77722	1323.47916	1.07025	123.81115	1259.31015	1.16586	101.28526	1300.61066	51.60944	-120.16612	1291.85181	-66.89198	-122.62090	1287.41974	-21.46590	-112.87548	1333.22296	-69.81090	308.80228	1359.69147	401.95969	273.58494	1058.79128	446.97628	318.37824	1044.12392	429.02847	255.18110	1057.54410	396.14601	187.40839	840.26184	432.69821	148.21368	860.82878	417.01195	200.57390	842.30431	396.84761	347.68005	880.35355	57.79131	236.55827	884.31801	380.95558	369.09286	417.37087	207.75787	416.67675	457.95986	117.04709	320.44628	406.24474	109.14495	354.21467	456.99280	240.59248	326.21613	477.73834	357.13284	256.88494	423.16753	270.01394	384.47247	173.02574	100.73784	388.03734	166.20104	172.53349	460.70206	165.34134	128.51170	307.69169	169.76011	300.86267	356.99707	171.00470	350.74787	376.82140	177.85210	265.96287	-639.22562	866.68282	-625.07145 
82	44.850	-711.22612	1083.99651	-442.78744	-818.90564	1105.72128	-262.91058	-1002.73346	1130.42648	-330.34233	-880.01884	1107.05765	-546.27903	-786.59531	1446.05637	-385.73200	-862.95349	1514.88113	-457.42222	-729.18564	1638.03162	-292.99318	-884.02733	1649.66003	-356.44806	-774.82452	1650.75592	-456.71555	-966.69014	1477.74811	-288.99031	-961.73035	1338.60245	-84.74973	-971.23848	1285.20599	-17.10838	-939.11926	1244.57161	-58.39339	-789.77737	1407.47116	-37.21050	-804.91684	1424.35043	-77.03901	-786.81488	1392.51083	-101.44738	-732.75429	1433.76114	-580.69660	-719.77905	1111.62987	-671.92299	-743.54080	1094.84665	-603.73558	-657.84035	1118.38516	-628.19981	-620.46551	877.97813	-558.51257	-600.87112	871.56479	-601.65855	-1007.12349	930.95474	-254.42617	-753.78319	893.40210	-529.41010	-897.15614	429.47063	-181.43406	-974.51866	472.27699	-205.33569	-872.42798	448.75603	-272.35971	-768.93692	425.60543	-470.91034	-851.24893	457.81586	-534.09012	-835.80742	418.28182	-397.76470	-966.65367	206.45054	-251.98809	-930.51949	209.56089	-308.57340	-1014.71886	220.56057	-308.99574	-832.27219	163.61431	-504.20616	-911.85089	174.05472	-508.38654	-868.81493	175.02951	-446.21387	203.12666	1040.22644	293.14959	225.50949	1054.54178	138.99885	386.02592	1045.57129	147.10224	325.89901	1044.80766	322.08874	289.48854	1379.84879	241.84799	429.82853	1421.37329	253.94434	247.53845	1591.12946	207.29385	411.37585	1562.64404	163.20345	370.86052	1568.56277	321.36036	360.91549	1380.28931	89.43424	123.55002	1322.84042	0.99937	122.75373	1258.68362	1.07430	100.04020	1299.63913	51.51386	-121.36927	1290.50079	-66.80158	-123.76898	1285.83344	-21.50840	-114.22295	1331.91406	-69.60068	307.96663	1359.66599	401.83098	273.50607	1058.64861	446.95660	318.40649	1044.04846	428.73291	254.98215	1057.45071	396.15322	187.29782	840.21431	432.76188	148.11110	860.79765	417.04914	200.95039	841.84998	397.61265	347.59686	880.26772	57.74883	236.81515	884.41307	380.95852	369.00845	417.34245	207.73108	416.49555	457.91977	117.02573	320.32063	406.19579	109.14792	354.08066	456.97418	240.46721	326.10199	477.77687	357.08809	256.73573	423.21362	269.95195	384.41933	172.97390	100.75010	388.01651	166.17184	172.54417	460.67322	165.33518	128.51677	307.63235	169.74924	300.87996	356.95145	171.01379	350.74890	376.75304	177.82986	265.97118	-640.78369	865.62653	-624.97116 
83	44.867	-711.54144	1083.34122	-442.51213	-817.81097	1105.60669	-261.84555	-1001.91887	1131.22803	-328.06946	-880.87814	1107.37633	-544.73888	-784.42253	1445.12085	-385.45212	-861.08459	1514.89471	-455.81230	-725.60074	1637.20932	-292.27825	-880.77408	1649.51019	-354.72939	-772.19826	1650.50385	-455.70107	-962.23328	1478.00812	-285.41828	-948.95790	1335.54489	-81.96867	-957.91565	1280.69717	-15.55110	-927.52922	1240.57495	-58.71359	-772.76512	1397.83585	-35.37093	-788.49701	1417.48108	-73.49695	-772.61238	1386.52206	-100.39424	-732.21657	1433.15079	-580.25887	-720.98274	1110.86975	-671.95892	-744.41132	1094.30420	-603.65520	-658.77487	1117.48619	-628.58318	-621.39637	877.59941	-558.36517	-602.10449	870.67551	-601.86420	-1007.03331	931.89178	-252.05221	-755.31189	893.38760	-529.13563	-894.01505	431.96663	-174.12411	-971.38062	474.74434	-198.39504	-869.51408	451.99806	-265.64167	-769.21669	425.68439	-470.87318	-852.08366	457.87560	-533.36140	-835.93918	418.39848	-397.91584	-963.03520	209.19760	-246.57459	-926.67397	212.50565	-302.51820	-1010.72189	223.63335	-303.90919	-832.36031	163.72417	-504.39888	-912.03598	174.08026	-508.00041	-868.78845	175.42339	-445.87418	203.16345	1040.06424	293.33771	225.42782	1054.41360	139.11201	386.14056	1045.74608	146.81903	326.35925	1044.82323	321.77608	288.20850	1379.98749	241.76235	428.67294	1420.93323	253.80283	247.27310	1591.54755	207.31783	410.98473	1562.37869	163.29868	370.49034	1568.52432	321.43471	359.39674	1380.54276	89.24499	122.25441	1322.17499	0.97967	121.72230	1258.01437	0.93229	99.03212	1298.85956	51.49831	-122.62355	1289.03534	-66.71449	-124.83572	1284.14810	-21.35614	-115.55306	1330.44739	-69.39593	306.89810	1359.66705	401.75533	273.29151	1058.56079	447.01134	317.78809	1043.97751	429.11533	254.76576	1057.35741	396.24756	187.08233	840.22598	432.86598	147.91493	860.79605	417.11384	200.83961	841.89651	397.77039	347.61734	880.20554	57.69716	237.11004	884.52240	381.02692	368.97133	417.33089	207.69100	416.42879	457.90371	116.95799	320.25883	406.14758	109.10374	354.03137	456.97842	240.33688	326.11198	477.76711	356.97868	256.68720	423.23944	269.91129	384.40872	172.93304	100.74294	387.99812	166.15763	172.56092	460.65216	165.32503	128.50752	307.63840	169.73711	300.85855	356.95671	171.02057	350.73631	376.73668	177.81893	265.94837	-642.18712	864.73282	-624.73381 
84	44.883	-712.06963	1082.95479	-442.26803	-816.28868	1105.70999	-260.56931	-1000.85533	1132.37114	-325.05493	-882.27234	1107.72705	-543.06915	-782.26242	1444.83521	-384.46617	-859.33418	1514.98489	-453.65471	-722.22763	1636.43707	-290.96478	-877.65854	1649.58206	-352.58278	-769.60121	1650.40527	-454.06296	-957.58972	1478.25089	-281.19869	-934.86847	1332.75391	-79.65086	-943.44612	1276.68617	-13.51336	-915.34096	1237.42424	-59.53012	-754.43039	1388.27225	-33.89308	-770.81963	1410.36972	-70.51737	-756.64764	1380.49850	-100.42850	-732.26593	1432.58743	-579.74209	-722.45415	1110.11337	-671.84074	-745.65239	1093.72963	-603.38181	-660.03716	1116.84464	-628.84560	-622.46880	877.04758	-558.28995	-603.49655	870.03479	-601.81057	-1006.61957	933.08517	-249.36178	-757.14607	893.44109	-528.61271	-892.20161	434.34605	-166.76920	-968.99651	476.73275	-192.48293	-866.50780	454.47193	-258.51913	-769.94720	425.81245	-470.76241	-853.34389	458.11180	-532.66884	-836.43440	418.51509	-397.98477	-960.61958	211.53017	-238.92118	-924.26353	213.52953	-292.62211	-1006.55052	225.35908	-297.95837	-832.65106	163.88294	-504.47826	-912.31438	174.10946	-507.68456	-868.58780	175.58762	-444.78653	203.22563	1039.76875	293.56680	225.40121	1054.27437	139.27352	385.37907	1045.86823	147.51392	326.42433	1044.87343	321.75449	286.72438	1380.10529	241.79203	427.43603	1420.58472	253.82744	246.87708	1592.06619	207.27531	410.58083	1562.12418	163.37538	369.86217	1568.46466	321.51268	357.74151	1380.80154	89.23392	120.83988	1321.48010	0.94666	120.65274	1257.33322	0.68375	97.70065	1297.89398	51.33975	-123.95640	1287.44080	-66.65776	-126.08261	1282.47650	-21.29199	-117.04412	1328.87146	-69.19141	305.66002	1359.68719	401.78444	272.87285	1058.59489	447.24823	317.56479	1044.03229	429.23134	254.54409	1057.32666	396.35487	186.82371	840.27618	432.96543	147.71917	860.84579	417.15038	199.91791	842.75055	396.89514	347.69314	880.18707	57.67378	237.38070	884.53453	381.14445	368.96507	417.33398	207.66808	416.37119	457.89536	116.96033	320.23117	406.12057	109.11953	353.98136	456.94901	240.23930	326.09337	477.75093	356.86516	256.64898	423.24402	269.83219	384.38576	172.90586	100.73651	388.01804	166.13340	172.52678	460.66830	165.33316	128.45192	307.59972	169.71821	300.83563	356.93707	171.02247	350.70805	376.71841	177.78437	265.91925	-643.75267	864.10072	-624.45744 
